<?xml version="1.0" encoding="UTF-8"?>
<!-- Generated by Pixelmator Pro 3.6.18 -->
<svg width="64" height="64" viewBox="0 0 64 64" xmlns="http://www.w3.org/2000/svg">
    <g id="Group">
        <path id="Path" fill="#currentColor" stroke="none" d="M 31.941002 0 C 40.891998 0 48.513 3.125 54.798 9.372002 C 57.806 12.381001 60.093002 15.82 61.654999 19.686001 C 63.216003 23.553001 63.999001 27.656998 63.999001 32 C 63.999001 36.381001 63.225998 40.486 61.684998 44.313 C 60.141998 48.140999 57.865002 51.522999 54.856998 54.456001 C 51.734001 57.541 48.191002 59.903999 44.228001 61.542 C 40.266998 63.18 36.171001 63.999001 31.943001 63.999001 C 27.715 63.999001 23.667 63.191002 19.799999 61.57 C 15.934 59.952 12.466999 57.609001 9.4 54.542999 C 6.333 51.477001 4 48.019001 2.4 44.171001 C 0.8 40.323002 0 36.266998 0 32 C 0 27.771 0.809 23.705002 2.428 19.799999 C 4.047 15.895 6.4 12.400002 9.485 9.313999 C 15.58 3.105999 23.065001 0 31.941002 0 Z M 32.056999 5.771999 C 24.743 5.771999 18.59 8.325001 13.599001 13.429001 C 11.084 15.982002 9.151 18.848 7.799 22.028999 C 6.445 25.209999 5.77 28.534 5.77 32.000999 C 5.77 35.43 6.445 38.735001 7.799 41.914001 C 9.152 45.097 11.084 47.935001 13.599001 50.43 C 16.113001 52.925999 18.950001 54.828999 22.114 56.145 C 25.275 57.459 28.59 58.116001 32.056999 58.116001 C 35.485001 58.116001 38.806999 57.451 42.029999 56.117001 C 45.249001 54.782001 48.151001 52.860001 50.743 50.346001 C 55.733002 45.470001 58.227001 39.355999 58.227001 32.001999 C 58.227001 28.459 57.578999 25.107002 56.284 21.945 C 54.991001 18.783001 53.104 15.965 50.630001 13.487 C 45.484001 8.344002 39.294998 5.771999 32.056999 5.771999 Z M 31.655998 26.687 L 27.368999 28.916 C 26.910999 27.965 26.35 27.297001 25.684 26.916 C 25.017 26.535999 24.398001 26.345001 23.826 26.345001 C 20.969999 26.345001 19.540001 28.23 19.540001 32.001999 C 19.540001 33.716 19.902 35.085999 20.625 36.115002 C 21.349001 37.144001 22.416 37.659 23.826 37.659 C 25.693001 37.659 27.007 36.743999 27.77 34.916 L 31.712002 36.916 C 30.874001 38.479 29.712002 39.707001 28.226002 40.602001 C 26.742001 41.498001 25.103001 41.945 23.312 41.945 C 20.455 41.945 18.149 41.07 16.396999 39.316002 C 14.645 37.563999 13.768999 35.125999 13.768999 32.002998 C 13.768999 28.955002 14.655001 26.537003 16.426001 24.746002 C 18.197001 22.956001 20.434999 22.059998 23.141001 22.059998 C 27.104 22.057999 29.941002 23.600998 31.655998 26.687 Z M 50.112999 26.687 L 45.883999 28.916 C 45.426998 27.965 44.863998 27.297001 44.198002 26.916 C 43.529999 26.535999 42.890999 26.345001 42.284 26.345001 C 39.426998 26.345001 37.997002 28.23 37.997002 32.001999 C 37.997002 33.716 38.360001 35.085999 39.083 36.115002 C 39.806 37.144001 40.872002 37.659 42.284 37.659 C 44.148998 37.659 45.464001 36.743999 46.224998 34.916 L 50.224998 36.916 C 49.349998 38.479 48.167999 39.707001 46.683998 40.602001 C 45.198002 41.498001 43.578999 41.945 41.827 41.945 C 38.931 41.945 36.618 41.07 34.886002 39.316002 C 33.150002 37.563999 32.284 35.125999 32.284 32.002998 C 32.284 28.955002 33.168999 26.537003 34.942001 24.746002 C 36.712002 22.956001 38.950001 22.059998 41.654999 22.059998 C 45.617001 22.057999 48.438 23.600998 50.112999 26.687 Z"/>
    </g>
</svg>
