<?xml version="1.0" encoding="UTF-8"?>
<!-- Generated by Pixelmator Pro 3.6.18 -->
<svg width="64" height="64" viewBox="0 0 64 64" xmlns="http://www.w3.org/2000/svg">
    <g id="Group">
        <path id="text28091" fill="#currentColor" stroke="none" d="M 32 13.580002 C 21.434999 13.580002 18.778 23.549 18.778 32 C 18.778 40.452 21.434 50.419998 32 50.419998 C 42.563999 50.419998 45.221001 40.452 45.221001 32 C 45.221001 23.549 42.563999 13.580002 32 13.580002 Z M 32 20.526001 C 32.429001 20.526001 32.82 20.591999 33.188 20.682999 C 33.949001 21.339001 34.320999 22.243999 33.591 23.506001 L 26.555 36.436001 C 26.339001 34.799999 26.308001 33.195999 26.308001 31.999001 C 26.308001 28.277 26.566 20.526001 32 20.526001 Z M 37.265999 26.487 C 37.639 28.471001 37.692001 30.542999 37.692001 32 C 37.692001 35.723 37.433998 43.474998 32.001999 43.474998 C 31.573999 43.474998 31.18 43.43 30.813999 43.339001 C 30.743999 43.318001 30.68 43.296001 30.612 43.271999 C 30.5 43.240002 30.382 43.203999 30.275999 43.161999 C 29.066 42.646999 28.304001 41.716 29.402 40.069 L 37.265999 26.487 Z"/>
        <path id="path28151" fill="#currentColor" stroke="none" d="M 31.933001 0 C 23.056 0 15.574 3.09 9.479 9.299999 C 6.392 12.387001 4.036 15.906998 2.397 19.832001 C 0.797 23.719002 0 27.771 0 32 C 0 36.268002 0.797 40.32 2.397 44.167999 C 3.997 48.018002 6.318 51.48 9.366 54.563999 C 12.451 57.612999 15.915 59.963001 19.764 61.601002 C 23.65 63.202999 27.702999 63.999001 31.933001 63.999001 C 36.161999 63.999001 40.272999 63.173 44.236 61.534 C 48.198002 59.895 51.731998 57.540001 54.856998 54.452999 C 57.868 51.52 60.146 48.155998 61.668999 44.347 C 63.23 40.5 64 36.382999 64 32 C 64 27.656998 63.23 23.545998 61.669998 19.696999 C 60.108002 15.812 57.821999 12.376999 54.813 9.367001 C 48.525002 3.118999 40.884998 0 31.933001 0 Z M 32.067001 5.758999 C 39.305 5.758999 45.479 8.325001 50.620998 13.468002 C 53.098 15.945 54.995998 18.778 56.291 21.938999 C 57.587002 25.100998 58.240002 28.457001 58.240002 32 C 58.240002 39.354 55.723999 45.453999 50.734001 50.330002 C 48.141998 52.846001 45.231998 54.777 41.993999 56.111 C 38.793999 57.445 35.495998 58.105 32.067001 58.105 C 28.599001 58.105 25.278999 57.452 22.118 56.157001 C 18.955 54.823002 16.117001 52.918999 13.602 50.441002 C 11.087 47.926998 9.147 45.088001 7.776 41.924999 C 6.443 38.726002 5.759 35.426998 5.759 31.998001 C 5.759 28.530998 6.443 25.210999 7.776 22.049 C 9.147 18.848999 11.088 15.974998 13.602 13.420998 C 18.591999 8.318001 24.752001 5.758999 32.067001 5.758999 Z"/>
    </g>
</svg>
